<svg width="619" height="349" viewBox="0 0 619 349" fill="none" xmlns="http://www.w3.org/2000/svg">
<mask id="path-1-inside-1_57_123" fill="white">
<path fill-rule="evenodd" clip-rule="evenodd" d="M435.147 151.5L309.574 33L184 151.5H239.66C241.484 188.534 272.088 218 309.574 218C347.061 218 377.665 188.534 379.488 151.5H435.147ZM372.479 151.5H379.488C379.545 150.341 379.574 149.174 379.574 148C379.574 109.34 348.234 78 309.574 78C270.914 78 239.574 109.34 239.574 148C239.574 149.174 239.603 150.341 239.66 151.5H246.67C248.486 184.666 275.955 211 309.574 211C343.194 211 370.663 184.666 372.479 151.5ZM372.479 151.5H246.67C246.606 150.341 246.574 149.174 246.574 148C246.574 113.206 274.78 85 309.574 85C344.368 85 372.574 113.206 372.574 148C372.574 149.174 372.542 150.341 372.479 151.5Z"/>
</mask>
<path d="M309.574 33L314.378 27.9089L309.574 23.3753L304.769 27.9089L309.574 33ZM435.147 151.5V158.5H452.764L439.952 146.409L435.147 151.5ZM184 151.5L179.196 146.409L166.383 158.5H184V151.5ZM304.769 38.0911L430.343 156.591L439.952 146.409L314.378 27.9089L304.769 38.0911ZM188.804 156.591L314.378 38.0911L304.769 27.9089L179.196 146.409L188.804 156.591ZM239.66 144.5H184V158.5H239.66V144.5ZM232.669 151.844C234.675 192.587 268.337 225 309.574 225V211C275.839 211 248.293 184.48 246.652 151.156L232.669 151.844ZM309.574 225C350.811 225 384.474 192.587 386.48 151.844L372.497 151.156C370.856 184.48 343.31 211 309.574 211V225ZM435.147 144.5H379.488V158.5H435.147V144.5ZM379.488 144.5H372.479V158.5H379.488V144.5ZM386.48 151.844C386.543 150.57 386.574 149.289 386.574 148H372.574C372.574 149.059 372.548 150.111 372.497 151.156L386.48 151.844ZM386.574 148C386.574 105.474 352.1 71 309.574 71V85C344.368 85 372.574 113.206 372.574 148H386.574ZM309.574 71C267.048 71 232.574 105.474 232.574 148H246.574C246.574 113.206 274.78 85 309.574 85V71ZM232.574 148C232.574 149.288 232.606 150.57 232.669 151.844L246.652 151.156C246.6 150.111 246.574 149.059 246.574 148H232.574ZM246.67 144.5H239.66V158.5H246.67V144.5ZM239.68 151.883C241.698 188.74 272.217 218 309.574 218V204C279.693 204 255.273 180.592 253.659 151.117L239.68 151.883ZM309.574 218C346.931 218 377.45 188.74 379.468 151.883L365.489 151.117C363.875 180.592 339.456 204 309.574 204V218ZM372.479 144.5H246.67V158.5H372.479V144.5ZM239.574 148C239.574 149.302 239.61 150.597 239.68 151.883L253.659 151.117C253.603 150.086 253.574 149.047 253.574 148H239.574ZM309.574 78C270.914 78 239.574 109.34 239.574 148H253.574C253.574 117.072 278.646 92 309.574 92V78ZM379.574 148C379.574 109.34 348.234 78 309.574 78V92C340.502 92 365.574 117.072 365.574 148H379.574ZM379.468 151.883C379.539 150.597 379.574 149.302 379.574 148H365.574C365.574 149.047 365.546 150.086 365.489 151.117L379.468 151.883Z" fill="black" mask="url(#path-1-inside-1_57_123)"/>
<mask id="path-3-outside-2_57_123" maskUnits="userSpaceOnUse" x="46" y="236" width="529" height="82" fill="black">
<rect fill="white" x="46" y="236" width="529" height="82"/>
<path d="M70.344 251.392H47.112V247.36H98.184V251.392H74.952V316H70.344V251.392ZM131.885 316.96C122.989 316.96 115.533 313.856 109.517 307.648C103.501 301.44 100.493 293.856 100.493 284.896C100.493 275.872 103.501 268.256 109.517 262.048C115.533 255.84 122.989 252.736 131.885 252.736C140.781 252.736 148.237 255.84 154.253 262.048C160.269 268.256 163.277 275.872 163.277 284.896C163.277 293.856 160.269 301.44 154.253 307.648C148.237 313.856 140.781 316.96 131.885 316.96ZM131.885 256.672C124.205 256.672 117.805 259.392 112.685 264.832C107.629 270.272 105.101 276.96 105.101 284.896C105.101 292.768 107.629 299.424 112.685 304.864C117.805 310.24 124.205 312.928 131.885 312.928C139.628 312.928 146.029 310.24 151.085 304.864C156.141 299.424 158.669 292.768 158.669 284.896C158.669 276.96 156.141 270.272 151.085 264.832C146.029 259.392 139.628 256.672 131.885 256.672ZM131.981 243.808L121.997 248.704L120.749 246.976L131.981 238.432L143.213 246.976L141.965 248.704L131.981 243.808ZM217.114 316V253.312H219.226L260.122 300.352C261.594 302.016 262.938 303.68 264.154 305.344C265.434 306.944 266.106 307.776 266.17 307.84C266.042 306.304 265.978 303.296 265.978 298.816V253.696H270.394V316.384H268.282L226.618 268.576L221.338 262.144C221.466 263.424 221.53 266.432 221.53 271.168V316H217.114ZM320.978 316.96C312.082 316.96 304.626 313.856 298.61 307.648C292.594 301.44 289.586 293.856 289.586 284.896C289.586 275.872 292.594 268.256 298.61 262.048C304.626 255.84 312.082 252.736 320.978 252.736C329.874 252.736 337.33 255.84 343.346 262.048C349.362 268.256 352.37 275.872 352.37 284.896C352.37 293.856 349.362 301.44 343.346 307.648C337.33 313.856 329.874 316.96 320.978 316.96ZM320.978 256.672C313.298 256.672 306.898 259.392 301.778 264.832C296.722 270.272 294.194 276.96 294.194 284.896C294.194 292.768 296.722 299.424 301.778 304.864C306.898 310.24 313.298 312.928 320.978 312.928C328.722 312.928 335.122 310.24 340.178 304.864C345.234 299.424 347.762 292.768 347.762 284.896C347.762 276.96 345.234 270.272 340.178 264.832C335.122 259.392 328.722 256.672 320.978 256.672ZM334.226 243.616L320.21 248.704L316.946 247.744L333.65 238.528L334.226 243.616ZM371.614 316V253.312H373.726L414.622 300.352C416.094 302.016 417.438 303.68 418.654 305.344C419.934 306.944 420.606 307.776 420.67 307.84C420.542 306.304 420.478 303.296 420.478 298.816V253.696H424.894V316.384H422.782L381.118 268.576L375.838 262.144C375.966 263.424 376.03 266.432 376.03 271.168V316H371.614ZM482.52 316V253.696H486.936V311.968H515.544V316H482.52ZM531.717 294.4L522.789 316H518.277L544.389 253.312H546.981L573.285 316H568.389L559.365 294.4H531.717ZM545.445 260.416C544.485 263.296 543.621 265.696 542.853 267.616L533.253 290.656H557.829L548.325 267.712C546.853 264.128 545.893 261.696 545.445 260.416ZM557.733 243.616L543.717 248.704L540.453 247.744L557.157 238.528L557.733 243.616Z"/>
</mask>
<path d="M70.344 251.392H47.112V247.36H98.184V251.392H74.952V316H70.344V251.392ZM131.885 316.96C122.989 316.96 115.533 313.856 109.517 307.648C103.501 301.44 100.493 293.856 100.493 284.896C100.493 275.872 103.501 268.256 109.517 262.048C115.533 255.84 122.989 252.736 131.885 252.736C140.781 252.736 148.237 255.84 154.253 262.048C160.269 268.256 163.277 275.872 163.277 284.896C163.277 293.856 160.269 301.44 154.253 307.648C148.237 313.856 140.781 316.96 131.885 316.96ZM131.885 256.672C124.205 256.672 117.805 259.392 112.685 264.832C107.629 270.272 105.101 276.96 105.101 284.896C105.101 292.768 107.629 299.424 112.685 304.864C117.805 310.24 124.205 312.928 131.885 312.928C139.628 312.928 146.029 310.24 151.085 304.864C156.141 299.424 158.669 292.768 158.669 284.896C158.669 276.96 156.141 270.272 151.085 264.832C146.029 259.392 139.628 256.672 131.885 256.672ZM131.981 243.808L121.997 248.704L120.749 246.976L131.981 238.432L143.213 246.976L141.965 248.704L131.981 243.808ZM217.114 316V253.312H219.226L260.122 300.352C261.594 302.016 262.938 303.68 264.154 305.344C265.434 306.944 266.106 307.776 266.17 307.84C266.042 306.304 265.978 303.296 265.978 298.816V253.696H270.394V316.384H268.282L226.618 268.576L221.338 262.144C221.466 263.424 221.53 266.432 221.53 271.168V316H217.114ZM320.978 316.96C312.082 316.96 304.626 313.856 298.61 307.648C292.594 301.44 289.586 293.856 289.586 284.896C289.586 275.872 292.594 268.256 298.61 262.048C304.626 255.84 312.082 252.736 320.978 252.736C329.874 252.736 337.33 255.84 343.346 262.048C349.362 268.256 352.37 275.872 352.37 284.896C352.37 293.856 349.362 301.44 343.346 307.648C337.33 313.856 329.874 316.96 320.978 316.96ZM320.978 256.672C313.298 256.672 306.898 259.392 301.778 264.832C296.722 270.272 294.194 276.96 294.194 284.896C294.194 292.768 296.722 299.424 301.778 304.864C306.898 310.24 313.298 312.928 320.978 312.928C328.722 312.928 335.122 310.24 340.178 304.864C345.234 299.424 347.762 292.768 347.762 284.896C347.762 276.96 345.234 270.272 340.178 264.832C335.122 259.392 328.722 256.672 320.978 256.672ZM334.226 243.616L320.21 248.704L316.946 247.744L333.65 238.528L334.226 243.616ZM371.614 316V253.312H373.726L414.622 300.352C416.094 302.016 417.438 303.68 418.654 305.344C419.934 306.944 420.606 307.776 420.67 307.84C420.542 306.304 420.478 303.296 420.478 298.816V253.696H424.894V316.384H422.782L381.118 268.576L375.838 262.144C375.966 263.424 376.03 266.432 376.03 271.168V316H371.614ZM482.52 316V253.696H486.936V311.968H515.544V316H482.52ZM531.717 294.4L522.789 316H518.277L544.389 253.312H546.981L573.285 316H568.389L559.365 294.4H531.717ZM545.445 260.416C544.485 263.296 543.621 265.696 542.853 267.616L533.253 290.656H557.829L548.325 267.712C546.853 264.128 545.893 261.696 545.445 260.416ZM557.733 243.616L543.717 248.704L540.453 247.744L557.157 238.528L557.733 243.616Z" fill="black"/>
<path d="M70.344 251.392H71.344V250.392H70.344V251.392ZM47.112 251.392H46.112V252.392H47.112V251.392ZM47.112 247.36V246.36H46.112V247.36H47.112ZM98.184 247.36H99.184V246.36H98.184V247.36ZM98.184 251.392V252.392H99.184V251.392H98.184ZM74.952 251.392V250.392H73.952V251.392H74.952ZM74.952 316V317H75.952V316H74.952ZM70.344 316H69.344V317H70.344V316ZM70.344 250.392H47.112V252.392H70.344V250.392ZM48.112 251.392V247.36H46.112V251.392H48.112ZM47.112 248.36H98.184V246.36H47.112V248.36ZM97.184 247.36V251.392H99.184V247.36H97.184ZM98.184 250.392H74.952V252.392H98.184V250.392ZM73.952 251.392V316H75.952V251.392H73.952ZM74.952 315H70.344V317H74.952V315ZM71.344 316V251.392H69.344V316H71.344ZM109.517 307.648L110.235 306.952L109.517 307.648ZM109.517 262.048L110.235 262.744L110.235 262.744L109.517 262.048ZM154.253 262.048L154.971 261.352L154.971 261.352L154.253 262.048ZM154.253 307.648L154.971 308.344L154.971 308.344L154.253 307.648ZM112.685 264.832L111.956 264.147L111.952 264.151L112.685 264.832ZM112.685 304.864L111.952 305.545L111.96 305.554L112.685 304.864ZM151.085 304.864L151.813 305.549L151.817 305.545L151.085 304.864ZM151.085 264.832L151.817 264.151L151.817 264.151L151.085 264.832ZM131.981 243.808L132.421 242.91L131.981 242.694L131.54 242.91L131.981 243.808ZM121.997 248.704L121.186 249.289L121.68 249.973L122.437 249.602L121.997 248.704ZM120.749 246.976L120.143 246.18L119.367 246.771L119.938 247.561L120.749 246.976ZM131.981 238.432L132.586 237.636L131.981 237.176L131.375 237.636L131.981 238.432ZM143.213 246.976L144.023 247.561L144.594 246.771L143.818 246.18L143.213 246.976ZM141.965 248.704L141.524 249.602L142.281 249.973L142.775 249.289L141.965 248.704ZM131.885 315.96C123.25 315.96 116.056 312.959 110.235 306.952L108.798 308.344C115.009 314.753 122.727 317.96 131.885 317.96V315.96ZM110.235 306.952C104.407 300.938 101.493 293.607 101.493 284.896H99.4925C99.4925 294.105 102.594 301.942 108.798 308.344L110.235 306.952ZM101.493 284.896C101.493 276.119 104.408 268.756 110.235 262.744L108.798 261.352C102.593 267.756 99.4925 275.625 99.4925 284.896H101.493ZM110.235 262.744C116.056 256.737 123.25 253.736 131.885 253.736V251.736C122.727 251.736 115.009 254.943 108.798 261.352L110.235 262.744ZM131.885 253.736C140.519 253.736 147.713 256.737 153.534 262.744L154.971 261.352C148.76 254.943 141.042 251.736 131.885 251.736V253.736ZM153.534 262.744C159.361 268.756 162.277 276.119 162.277 284.896H164.277C164.277 275.625 161.176 267.756 154.971 261.352L153.534 262.744ZM162.277 284.896C162.277 293.607 159.362 300.938 153.534 306.952L154.971 308.344C161.175 301.942 164.277 294.105 164.277 284.896H162.277ZM153.534 306.952C147.713 312.959 140.519 315.96 131.885 315.96V317.96C141.042 317.96 148.76 314.753 154.971 308.344L153.534 306.952ZM131.885 255.672C123.938 255.672 117.271 258.5 111.956 264.147L113.413 265.517C118.338 260.284 124.471 257.672 131.885 257.672V255.672ZM111.952 264.151C106.712 269.79 104.101 276.726 104.101 284.896H106.101C106.101 277.194 108.545 270.754 113.417 265.513L111.952 264.151ZM104.101 284.896C104.101 293.004 106.713 299.908 111.952 305.545L113.417 304.183C108.544 298.94 106.101 292.532 106.101 284.896H104.101ZM111.96 305.554C117.276 311.135 123.941 313.928 131.885 313.928V311.928C124.468 311.928 118.333 309.345 113.409 304.174L111.96 305.554ZM131.885 313.928C139.889 313.928 146.558 311.137 151.813 305.549L150.356 304.179C145.499 309.343 139.368 311.928 131.885 311.928V313.928ZM151.817 305.545C157.056 299.908 159.669 293.004 159.669 284.896H157.669C157.669 292.532 155.225 298.94 150.352 304.183L151.817 305.545ZM159.669 284.896C159.669 276.726 157.057 269.79 151.817 264.151L150.352 265.513C155.224 270.754 157.669 277.194 157.669 284.896H159.669ZM151.817 264.151C146.563 258.498 139.893 255.672 131.885 255.672V257.672C139.364 257.672 145.494 260.286 150.352 265.513L151.817 264.151ZM131.54 242.91L121.556 247.806L122.437 249.602L132.421 244.706L131.54 242.91ZM122.807 248.119L121.559 246.391L119.938 247.561L121.186 249.289L122.807 248.119ZM121.354 247.772L132.586 239.228L131.375 237.636L120.143 246.18L121.354 247.772ZM131.375 239.228L142.607 247.772L143.818 246.18L132.586 237.636L131.375 239.228ZM142.402 246.391L141.154 248.119L142.775 249.289L144.023 247.561L142.402 246.391ZM142.405 247.806L132.421 242.91L131.54 244.706L141.524 249.602L142.405 247.806ZM217.114 316H216.114V317H217.114V316ZM217.114 253.312V252.312H216.114V253.312H217.114ZM219.226 253.312L219.98 252.656L219.681 252.312H219.226V253.312ZM260.122 300.352L259.367 301.008L259.373 301.015L260.122 300.352ZM264.154 305.344L263.346 305.934L263.359 305.952L263.373 305.969L264.154 305.344ZM266.17 307.84L265.463 308.547L267.393 310.478L267.166 307.757L266.17 307.84ZM265.978 253.696V252.696H264.978V253.696H265.978ZM270.394 253.696H271.394V252.696H270.394V253.696ZM270.394 316.384V317.384H271.394V316.384H270.394ZM268.282 316.384L267.528 317.041L267.827 317.384H268.282V316.384ZM226.618 268.576L225.845 269.21L225.854 269.222L225.864 269.233L226.618 268.576ZM221.338 262.144L222.111 261.51L220.014 258.955L220.343 262.243L221.338 262.144ZM221.53 316V317H222.53V316H221.53ZM218.114 316V253.312H216.114V316H218.114ZM217.114 254.312H219.226V252.312H217.114V254.312ZM218.471 253.968L259.367 301.008L260.876 299.696L219.98 252.656L218.471 253.968ZM259.373 301.015C260.826 302.657 262.15 304.297 263.346 305.934L264.961 304.754C263.725 303.063 262.362 301.375 260.871 299.689L259.373 301.015ZM263.373 305.969C264.013 306.769 264.502 307.378 264.84 307.796C265.008 308.005 265.14 308.168 265.235 308.283C265.306 308.37 265.402 308.487 265.463 308.547L266.877 307.133C266.905 307.161 266.893 307.15 266.78 307.013C266.691 306.904 266.563 306.747 266.396 306.54C266.061 306.126 265.574 305.519 264.935 304.719L263.373 305.969ZM267.166 307.757C267.042 306.269 266.978 303.302 266.978 298.816H264.978C264.978 303.29 265.041 306.339 265.173 307.923L267.166 307.757ZM266.978 298.816V253.696H264.978V298.816H266.978ZM265.978 254.696H270.394V252.696H265.978V254.696ZM269.394 253.696V316.384H271.394V253.696H269.394ZM270.394 315.384H268.282V317.384H270.394V315.384ZM269.036 315.727L227.372 267.919L225.864 269.233L267.528 317.041L269.036 315.727ZM227.391 267.942L222.111 261.51L220.565 262.778L225.845 269.21L227.391 267.942ZM220.343 262.243C220.465 263.463 220.53 266.416 220.53 271.168H222.53C222.53 266.448 222.467 263.385 222.333 262.044L220.343 262.243ZM220.53 271.168V316H222.53V271.168H220.53ZM221.53 315H217.114V317H221.53V315ZM298.61 307.648L299.328 306.952L298.61 307.648ZM298.61 262.048L299.328 262.744L299.328 262.744L298.61 262.048ZM343.346 262.048L344.064 261.352L344.064 261.352L343.346 262.048ZM343.346 307.648L344.064 308.344L344.064 308.344L343.346 307.648ZM301.778 264.832L301.05 264.147L301.046 264.151L301.778 264.832ZM301.778 304.864L301.046 305.545L301.054 305.554L301.778 304.864ZM340.178 304.864L340.907 305.549L340.911 305.545L340.178 304.864ZM340.178 264.832L340.911 264.151L340.911 264.151L340.178 264.832ZM334.226 243.616L334.567 244.556L335.309 244.287L335.22 243.504L334.226 243.616ZM320.21 248.704L319.928 249.663L320.243 249.756L320.551 249.644L320.21 248.704ZM316.946 247.744L316.463 246.868L314.364 248.027L316.664 248.703L316.946 247.744ZM333.65 238.528L334.644 238.416L334.476 236.93L333.167 237.652L333.65 238.528ZM320.978 315.96C312.344 315.96 305.15 312.959 299.328 306.952L297.892 308.344C304.103 314.753 311.82 317.96 320.978 317.96V315.96ZM299.328 306.952C293.5 300.938 290.586 293.607 290.586 284.896H288.586C288.586 294.105 291.688 301.942 297.892 308.344L299.328 306.952ZM290.586 284.896C290.586 276.119 293.502 268.756 299.328 262.744L297.892 261.352C291.687 267.756 288.586 275.625 288.586 284.896H290.586ZM299.328 262.744C305.15 256.737 312.344 253.736 320.978 253.736V251.736C311.82 251.736 304.103 254.943 297.892 261.352L299.328 262.744ZM320.978 253.736C329.612 253.736 336.807 256.737 342.628 262.744L344.064 261.352C337.854 254.943 330.136 251.736 320.978 251.736V253.736ZM342.628 262.744C348.455 268.756 351.37 276.119 351.37 284.896H353.37C353.37 275.625 350.27 267.756 344.064 261.352L342.628 262.744ZM351.37 284.896C351.37 293.607 348.456 300.938 342.628 306.952L344.064 308.344C350.268 301.942 353.37 294.105 353.37 284.896H351.37ZM342.628 306.952C336.807 312.959 329.612 315.96 320.978 315.96V317.96C330.136 317.96 337.854 314.753 344.064 308.344L342.628 306.952ZM320.978 255.672C313.031 255.672 306.365 258.5 301.05 264.147L302.506 265.517C307.432 260.284 313.565 257.672 320.978 257.672V255.672ZM301.046 264.151C295.805 269.79 293.194 276.726 293.194 284.896H295.194C295.194 277.194 297.639 270.754 302.511 265.513L301.046 264.151ZM293.194 284.896C293.194 293.004 295.807 299.908 301.046 305.545L302.511 304.183C297.638 298.94 295.194 292.532 295.194 284.896H293.194ZM301.054 305.554C306.37 311.135 313.035 313.928 320.978 313.928V311.928C313.561 311.928 307.426 309.345 302.502 304.174L301.054 305.554ZM320.978 313.928C328.983 313.928 335.651 311.137 340.907 305.549L339.45 304.179C334.593 309.343 328.462 311.928 320.978 311.928V313.928ZM340.911 305.545C346.15 299.908 348.762 293.004 348.762 284.896H346.762C346.762 292.532 344.319 298.94 339.446 304.183L340.911 305.545ZM348.762 284.896C348.762 276.726 346.151 269.79 340.911 264.151L339.446 265.513C344.317 270.754 346.762 277.194 346.762 284.896H348.762ZM340.911 264.151C335.657 258.498 328.987 255.672 320.978 255.672V257.672C328.458 257.672 334.588 260.286 339.446 265.513L340.911 264.151ZM333.885 242.676L319.869 247.764L320.551 249.644L334.567 244.556L333.885 242.676ZM320.492 247.745L317.228 246.785L316.664 248.703L319.928 249.663L320.492 247.745ZM317.429 248.62L334.133 239.404L333.167 237.652L316.463 246.868L317.429 248.62ZM332.657 238.64L333.233 243.728L335.22 243.504L334.644 238.416L332.657 238.64ZM371.614 316H370.614V317H371.614V316ZM371.614 253.312V252.312H370.614V253.312H371.614ZM373.726 253.312L374.48 252.656L374.181 252.312H373.726V253.312ZM414.622 300.352L413.867 301.008L413.873 301.015L414.622 300.352ZM418.654 305.344L417.846 305.934L417.859 305.952L417.873 305.969L418.654 305.344ZM420.67 307.84L419.963 308.547L421.893 310.478L421.666 307.757L420.67 307.84ZM420.478 253.696V252.696H419.478V253.696H420.478ZM424.894 253.696H425.894V252.696H424.894V253.696ZM424.894 316.384V317.384H425.894V316.384H424.894ZM422.782 316.384L422.028 317.041L422.327 317.384H422.782V316.384ZM381.118 268.576L380.345 269.21L380.354 269.222L380.364 269.233L381.118 268.576ZM375.838 262.144L376.611 261.51L374.514 258.955L374.843 262.243L375.838 262.144ZM376.03 316V317H377.03V316H376.03ZM372.614 316V253.312H370.614V316H372.614ZM371.614 254.312H373.726V252.312H371.614V254.312ZM372.971 253.968L413.867 301.008L415.376 299.696L374.48 252.656L372.971 253.968ZM413.873 301.015C415.326 302.657 416.65 304.297 417.846 305.934L419.461 304.754C418.225 303.063 416.862 301.375 415.371 299.689L413.873 301.015ZM417.873 305.969C418.513 306.769 419.002 307.378 419.34 307.796C419.508 308.005 419.64 308.168 419.735 308.283C419.806 308.37 419.902 308.487 419.963 308.547L421.377 307.133C421.405 307.161 421.393 307.15 421.28 307.013C421.191 306.904 421.063 306.747 420.896 306.54C420.561 306.126 420.074 305.519 419.435 304.719L417.873 305.969ZM421.666 307.757C421.542 306.269 421.478 303.302 421.478 298.816H419.478C419.478 303.29 419.541 306.339 419.673 307.923L421.666 307.757ZM421.478 298.816V253.696H419.478V298.816H421.478ZM420.478 254.696H424.894V252.696H420.478V254.696ZM423.894 253.696V316.384H425.894V253.696H423.894ZM424.894 315.384H422.782V317.384H424.894V315.384ZM423.536 315.727L381.872 267.919L380.364 269.233L422.028 317.041L423.536 315.727ZM381.891 267.942L376.611 261.51L375.065 262.778L380.345 269.21L381.891 267.942ZM374.843 262.243C374.965 263.463 375.03 266.416 375.03 271.168H377.03C377.03 266.448 376.967 263.385 376.833 262.044L374.843 262.243ZM375.03 271.168V316H377.03V271.168H375.03ZM376.03 315H371.614V317H376.03V315ZM482.52 316H481.52V317H482.52V316ZM482.52 253.696V252.696H481.52V253.696H482.52ZM486.936 253.696H487.936V252.696H486.936V253.696ZM486.936 311.968H485.936V312.968H486.936V311.968ZM515.544 311.968H516.544V310.968H515.544V311.968ZM515.544 316V317H516.544V316H515.544ZM483.52 316V253.696H481.52V316H483.52ZM482.52 254.696H486.936V252.696H482.52V254.696ZM485.936 253.696V311.968H487.936V253.696H485.936ZM486.936 312.968H515.544V310.968H486.936V312.968ZM514.544 311.968V316H516.544V311.968H514.544ZM515.544 315H482.52V317H515.544V315ZM531.717 294.4V293.4H531.048L530.793 294.018L531.717 294.4ZM522.789 316V317H523.458L523.713 316.382L522.789 316ZM518.277 316L517.354 315.615L516.777 317H518.277V316ZM544.389 253.312V252.312H543.722L543.466 252.927L544.389 253.312ZM546.981 253.312L547.903 252.925L547.646 252.312H546.981V253.312ZM573.285 316V317H574.789L574.207 315.613L573.285 316ZM568.389 316L567.466 316.385L567.723 317H568.389V316ZM559.365 294.4L560.288 294.015L560.031 293.4H559.365V294.4ZM545.445 260.416L546.389 260.086L545.422 257.323L544.496 260.1L545.445 260.416ZM542.853 267.616L543.776 268.001L543.779 267.994L543.781 267.987L542.853 267.616ZM533.253 290.656L532.33 290.271L531.753 291.656H533.253V290.656ZM557.829 290.656V291.656H559.326L558.753 290.273L557.829 290.656ZM548.325 267.712L547.4 268.092L547.401 268.095L548.325 267.712ZM557.733 243.616L558.074 244.556L558.815 244.287L558.727 243.504L557.733 243.616ZM543.717 248.704L543.435 249.663L543.75 249.756L544.058 249.644L543.717 248.704ZM540.453 247.744L539.97 246.868L537.87 248.027L540.171 248.703L540.453 247.744ZM557.157 238.528L558.151 238.416L557.983 236.93L556.674 237.652L557.157 238.528ZM530.793 294.018L521.865 315.618L523.713 316.382L532.641 294.782L530.793 294.018ZM522.789 315H518.277V317H522.789V315ZM519.2 316.385L545.312 253.697L543.466 252.927L517.354 315.615L519.2 316.385ZM544.389 254.312H546.981V252.312H544.389V254.312ZM546.059 253.699L572.363 316.387L574.207 315.613L547.903 252.925L546.059 253.699ZM573.285 315H568.389V317H573.285V315ZM569.312 315.615L560.288 294.015L558.442 294.785L567.466 316.385L569.312 315.615ZM559.365 293.4H531.717V295.4H559.365V293.4ZM544.496 260.1C543.54 262.969 542.683 265.349 541.925 267.245L543.781 267.987C544.559 266.043 545.43 263.623 546.394 260.732L544.496 260.1ZM541.93 267.231L532.33 290.271L534.176 291.041L543.776 268.001L541.93 267.231ZM533.253 291.656H557.829V289.656H533.253V291.656ZM558.753 290.273L549.249 267.329L547.401 268.095L556.905 291.039L558.753 290.273ZM549.25 267.332C547.777 263.745 546.827 261.337 546.389 260.086L544.501 260.746C544.959 262.055 545.929 264.511 547.4 268.092L549.25 267.332ZM557.392 242.676L543.376 247.764L544.058 249.644L558.074 244.556L557.392 242.676ZM543.999 247.745L540.735 246.785L540.171 248.703L543.435 249.663L543.999 247.745ZM540.936 248.62L557.64 239.404L556.674 237.652L539.97 246.868L540.936 248.62ZM556.163 238.64L556.739 243.728L558.727 243.504L558.151 238.416L556.163 238.64Z" fill="black" mask="url(#path-3-outside-2_57_123)"/>
<rect x="3.5" y="3.5" width="612" height="342" stroke="black" stroke-width="7"/>
</svg>
