<svg width="530" height="305" viewBox="0 0 530 305" fill="none" xmlns="http://www.w3.org/2000/svg">
<mask id="path-1-inside-1_77_2" fill="white">
<path fill-rule="evenodd" clip-rule="evenodd" d="M390.147 118.5L264.574 0L139 118.5H194.66C196.484 155.534 227.088 185 264.574 185C302.061 185 332.665 155.534 334.488 118.5H390.147ZM327.479 118.5H334.488C334.545 117.341 334.574 116.174 334.574 115C334.574 76.3401 303.234 45 264.574 45C225.914 45 194.574 76.3401 194.574 115C194.574 116.174 194.603 117.341 194.66 118.5H201.67C203.486 151.666 230.955 178 264.574 178C298.194 178 325.663 151.666 327.479 118.5ZM327.479 118.5H201.67C201.606 117.341 201.574 116.174 201.574 115C201.574 80.2061 229.78 52 264.574 52C299.368 52 327.574 80.2061 327.574 115C327.574 116.174 327.542 117.341 327.479 118.5Z"/>
</mask>
<path d="M264.574 0L269.378 -5.09106L264.574 -9.62471L259.769 -5.09106L264.574 0ZM390.147 118.5V125.5H407.764L394.952 113.409L390.147 118.5ZM139 118.5L134.196 113.409L121.383 125.5H139V118.5ZM259.769 5.09106L385.343 123.591L394.952 113.409L269.378 -5.09106L259.769 5.09106ZM143.804 123.591L269.378 5.09106L259.769 -5.09106L134.196 113.409L143.804 123.591ZM194.66 111.5H139V125.5H194.66V111.5ZM187.669 118.844C189.675 159.587 223.337 192 264.574 192V178C230.839 178 203.293 151.48 201.652 118.156L187.669 118.844ZM264.574 192C305.811 192 339.474 159.587 341.48 118.844L327.497 118.156C325.856 151.48 298.31 178 264.574 178V192ZM390.147 111.5H334.488V125.5H390.147V111.5ZM334.488 111.5H327.479V125.5H334.488V111.5ZM341.48 118.844C341.543 117.57 341.574 116.289 341.574 115H327.574C327.574 116.059 327.548 117.111 327.497 118.156L341.48 118.844ZM341.574 115C341.574 72.4741 307.1 38 264.574 38V52C299.368 52 327.574 80.2061 327.574 115H341.574ZM264.574 38C222.048 38 187.574 72.4741 187.574 115H201.574C201.574 80.2061 229.78 52 264.574 52V38ZM187.574 115C187.574 116.288 187.606 117.57 187.669 118.844L201.652 118.156C201.6 117.111 201.574 116.059 201.574 115H187.574ZM201.67 111.5H194.66V125.5H201.67V111.5ZM194.68 118.883C196.698 155.74 227.217 185 264.574 185V171C234.693 171 210.273 147.592 208.659 118.117L194.68 118.883ZM264.574 185C301.931 185 332.45 155.74 334.468 118.883L320.489 118.117C318.875 147.592 294.456 171 264.574 171V185ZM327.479 111.5H201.67V125.5H327.479V111.5ZM194.574 115C194.574 116.302 194.61 117.597 194.68 118.883L208.659 118.117C208.603 117.086 208.574 116.047 208.574 115H194.574ZM264.574 45C225.914 45 194.574 76.3401 194.574 115H208.574C208.574 84.0721 233.646 59 264.574 59V45ZM334.574 115C334.574 76.3401 303.234 45 264.574 45V59C295.502 59 320.574 84.0721 320.574 115H334.574ZM334.468 118.883C334.539 117.597 334.574 116.302 334.574 115H320.574C320.574 116.047 320.546 117.086 320.489 118.117L334.468 118.883Z" fill="black" mask="url(#path-1-inside-1_77_2)"/>
<mask id="path-3-outside-2_77_2" maskUnits="userSpaceOnUse" x="1" y="203" width="529" height="82" fill="black">
<rect fill="white" x="1" y="203" width="529" height="82"/>
<path d="M25.344 218.392H2.112V214.36H53.184V218.392H29.952V283H25.344V218.392ZM86.8845 283.96C77.9885 283.96 70.5325 280.856 64.5165 274.648C58.5005 268.44 55.4925 260.856 55.4925 251.896C55.4925 242.872 58.5005 235.256 64.5165 229.048C70.5325 222.84 77.9885 219.736 86.8845 219.736C95.7805 219.736 103.237 222.84 109.253 229.048C115.269 235.256 118.277 242.872 118.277 251.896C118.277 260.856 115.269 268.44 109.253 274.648C103.237 280.856 95.7805 283.96 86.8845 283.96ZM86.8845 223.672C79.2045 223.672 72.8045 226.392 67.6845 231.832C62.6285 237.272 60.1005 243.96 60.1005 251.896C60.1005 259.768 62.6285 266.424 67.6845 271.864C72.8045 277.24 79.2045 279.928 86.8845 279.928C94.6285 279.928 101.029 277.24 106.085 271.864C111.141 266.424 113.669 259.768 113.669 251.896C113.669 243.96 111.141 237.272 106.085 231.832C101.029 226.392 94.6285 223.672 86.8845 223.672ZM86.9805 210.808L76.9965 215.704L75.7485 213.976L86.9805 205.432L98.2125 213.976L96.9645 215.704L86.9805 210.808ZM172.114 283V220.312H174.226L215.122 267.352C216.594 269.016 217.938 270.68 219.154 272.344C220.434 273.944 221.106 274.776 221.17 274.84C221.042 273.304 220.978 270.296 220.978 265.816V220.696H225.394V283.384H223.282L181.618 235.576L176.338 229.144C176.466 230.424 176.53 233.432 176.53 238.168V283H172.114ZM275.978 283.96C267.082 283.96 259.626 280.856 253.61 274.648C247.594 268.44 244.586 260.856 244.586 251.896C244.586 242.872 247.594 235.256 253.61 229.048C259.626 222.84 267.082 219.736 275.978 219.736C284.874 219.736 292.33 222.84 298.346 229.048C304.362 235.256 307.37 242.872 307.37 251.896C307.37 260.856 304.362 268.44 298.346 274.648C292.33 280.856 284.874 283.96 275.978 283.96ZM275.978 223.672C268.298 223.672 261.898 226.392 256.778 231.832C251.722 237.272 249.194 243.96 249.194 251.896C249.194 259.768 251.722 266.424 256.778 271.864C261.898 277.24 268.298 279.928 275.978 279.928C283.722 279.928 290.122 277.24 295.178 271.864C300.234 266.424 302.762 259.768 302.762 251.896C302.762 243.96 300.234 237.272 295.178 231.832C290.122 226.392 283.722 223.672 275.978 223.672ZM289.226 210.616L275.21 215.704L271.946 214.744L288.65 205.528L289.226 210.616ZM326.614 283V220.312H328.726L369.622 267.352C371.094 269.016 372.438 270.68 373.654 272.344C374.934 273.944 375.606 274.776 375.67 274.84C375.542 273.304 375.478 270.296 375.478 265.816V220.696H379.894V283.384H377.782L336.118 235.576L330.838 229.144C330.966 230.424 331.03 233.432 331.03 238.168V283H326.614ZM437.52 283V220.696H441.936V278.968H470.544V283H437.52ZM486.717 261.4L477.789 283H473.277L499.389 220.312H501.981L528.285 283H523.389L514.365 261.4H486.717ZM500.445 227.416C499.485 230.296 498.621 232.696 497.853 234.616L488.253 257.656H512.829L503.325 234.712C501.853 231.128 500.893 228.696 500.445 227.416ZM512.733 210.616L498.717 215.704L495.453 214.744L512.157 205.528L512.733 210.616Z"/>
</mask>
<path d="M25.344 218.392H2.112V214.36H53.184V218.392H29.952V283H25.344V218.392ZM86.8845 283.96C77.9885 283.96 70.5325 280.856 64.5165 274.648C58.5005 268.44 55.4925 260.856 55.4925 251.896C55.4925 242.872 58.5005 235.256 64.5165 229.048C70.5325 222.84 77.9885 219.736 86.8845 219.736C95.7805 219.736 103.237 222.84 109.253 229.048C115.269 235.256 118.277 242.872 118.277 251.896C118.277 260.856 115.269 268.44 109.253 274.648C103.237 280.856 95.7805 283.96 86.8845 283.96ZM86.8845 223.672C79.2045 223.672 72.8045 226.392 67.6845 231.832C62.6285 237.272 60.1005 243.96 60.1005 251.896C60.1005 259.768 62.6285 266.424 67.6845 271.864C72.8045 277.24 79.2045 279.928 86.8845 279.928C94.6285 279.928 101.029 277.24 106.085 271.864C111.141 266.424 113.669 259.768 113.669 251.896C113.669 243.96 111.141 237.272 106.085 231.832C101.029 226.392 94.6285 223.672 86.8845 223.672ZM86.9805 210.808L76.9965 215.704L75.7485 213.976L86.9805 205.432L98.2125 213.976L96.9645 215.704L86.9805 210.808ZM172.114 283V220.312H174.226L215.122 267.352C216.594 269.016 217.938 270.68 219.154 272.344C220.434 273.944 221.106 274.776 221.17 274.84C221.042 273.304 220.978 270.296 220.978 265.816V220.696H225.394V283.384H223.282L181.618 235.576L176.338 229.144C176.466 230.424 176.53 233.432 176.53 238.168V283H172.114ZM275.978 283.96C267.082 283.96 259.626 280.856 253.61 274.648C247.594 268.44 244.586 260.856 244.586 251.896C244.586 242.872 247.594 235.256 253.61 229.048C259.626 222.84 267.082 219.736 275.978 219.736C284.874 219.736 292.33 222.84 298.346 229.048C304.362 235.256 307.37 242.872 307.37 251.896C307.37 260.856 304.362 268.44 298.346 274.648C292.33 280.856 284.874 283.96 275.978 283.96ZM275.978 223.672C268.298 223.672 261.898 226.392 256.778 231.832C251.722 237.272 249.194 243.96 249.194 251.896C249.194 259.768 251.722 266.424 256.778 271.864C261.898 277.24 268.298 279.928 275.978 279.928C283.722 279.928 290.122 277.24 295.178 271.864C300.234 266.424 302.762 259.768 302.762 251.896C302.762 243.96 300.234 237.272 295.178 231.832C290.122 226.392 283.722 223.672 275.978 223.672ZM289.226 210.616L275.21 215.704L271.946 214.744L288.65 205.528L289.226 210.616ZM326.614 283V220.312H328.726L369.622 267.352C371.094 269.016 372.438 270.68 373.654 272.344C374.934 273.944 375.606 274.776 375.67 274.84C375.542 273.304 375.478 270.296 375.478 265.816V220.696H379.894V283.384H377.782L336.118 235.576L330.838 229.144C330.966 230.424 331.03 233.432 331.03 238.168V283H326.614ZM437.52 283V220.696H441.936V278.968H470.544V283H437.52ZM486.717 261.4L477.789 283H473.277L499.389 220.312H501.981L528.285 283H523.389L514.365 261.4H486.717ZM500.445 227.416C499.485 230.296 498.621 232.696 497.853 234.616L488.253 257.656H512.829L503.325 234.712C501.853 231.128 500.893 228.696 500.445 227.416ZM512.733 210.616L498.717 215.704L495.453 214.744L512.157 205.528L512.733 210.616Z" fill="black"/>
<path d="M25.344 218.392H26.344V217.392H25.344V218.392ZM2.112 218.392H1.112V219.392H2.112V218.392ZM2.112 214.36V213.36H1.112V214.36H2.112ZM53.184 214.36H54.184V213.36H53.184V214.36ZM53.184 218.392V219.392H54.184V218.392H53.184ZM29.952 218.392V217.392H28.952V218.392H29.952ZM29.952 283V284H30.952V283H29.952ZM25.344 283H24.344V284H25.344V283ZM25.344 217.392H2.112V219.392H25.344V217.392ZM3.112 218.392V214.36H1.112V218.392H3.112ZM2.112 215.36H53.184V213.36H2.112V215.36ZM52.184 214.36V218.392H54.184V214.36H52.184ZM53.184 217.392H29.952V219.392H53.184V217.392ZM28.952 218.392V283H30.952V218.392H28.952ZM29.952 282H25.344V284H29.952V282ZM26.344 283V218.392H24.344V283H26.344ZM64.5165 274.648L65.2346 273.952L64.5165 274.648ZM64.5165 229.048L65.2346 229.744L65.2346 229.744L64.5165 229.048ZM109.253 229.048L109.971 228.352L109.971 228.352L109.253 229.048ZM109.253 274.648L109.971 275.344L109.971 275.344L109.253 274.648ZM67.6845 231.832L66.9563 231.147L66.952 231.151L67.6845 231.832ZM67.6845 271.864L66.952 272.545L66.9604 272.554L67.6845 271.864ZM106.085 271.864L106.813 272.549L106.817 272.545L106.085 271.864ZM106.085 231.832L106.817 231.151L106.817 231.151L106.085 231.832ZM86.9805 210.808L87.4208 209.91L86.9805 209.694L86.5402 209.91L86.9805 210.808ZM76.9965 215.704L76.1858 216.289L76.6796 216.973L77.4368 216.602L76.9965 215.704ZM75.7485 213.976L75.1431 213.18L74.3667 213.771L74.9378 214.561L75.7485 213.976ZM86.9805 205.432L87.5859 204.636L86.9805 204.176L86.3751 204.636L86.9805 205.432ZM98.2125 213.976L99.0232 214.561L99.5943 213.771L98.8179 213.18L98.2125 213.976ZM96.9645 215.704L96.5242 216.602L97.2814 216.973L97.7752 216.289L96.9645 215.704ZM86.8845 282.96C78.2503 282.96 71.0562 279.959 65.2346 273.952L63.7984 275.344C70.0088 281.753 77.7267 284.96 86.8845 284.96V282.96ZM65.2346 273.952C59.4066 267.938 56.4925 260.607 56.4925 251.896H54.4925C54.4925 261.105 57.5944 268.942 63.7984 275.344L65.2346 273.952ZM56.4925 251.896C56.4925 243.119 59.408 235.756 65.2346 229.744L63.7984 228.352C57.593 234.756 54.4925 242.625 54.4925 251.896H56.4925ZM65.2346 229.744C71.0562 223.737 78.2503 220.736 86.8845 220.736V218.736C77.7267 218.736 70.0088 221.943 63.7984 228.352L65.2346 229.744ZM86.8845 220.736C95.5187 220.736 102.713 223.737 108.534 229.744L109.971 228.352C103.76 221.943 96.0423 218.736 86.8845 218.736V220.736ZM108.534 229.744C114.361 235.756 117.277 243.119 117.277 251.896H119.277C119.277 242.625 116.176 234.756 109.971 228.352L108.534 229.744ZM117.277 251.896C117.277 260.607 114.362 267.938 108.534 273.952L109.971 275.344C116.175 268.942 119.277 261.105 119.277 251.896H117.277ZM108.534 273.952C102.713 279.959 95.5187 282.96 86.8845 282.96V284.96C96.0423 284.96 103.76 281.753 109.971 275.344L108.534 273.952ZM86.8845 222.672C78.9375 222.672 72.2712 225.5 66.9563 231.147L68.4127 232.517C73.3378 227.284 79.4715 224.672 86.8845 224.672V222.672ZM66.952 231.151C61.7116 236.79 59.1005 243.726 59.1005 251.896H61.1005C61.1005 244.194 63.5454 237.754 68.417 232.513L66.952 231.151ZM59.1005 251.896C59.1005 260.004 61.7131 266.908 66.952 272.545L68.417 271.183C63.5439 265.94 61.1005 259.532 61.1005 251.896H59.1005ZM66.9604 272.554C72.2763 278.135 78.9414 280.928 86.8845 280.928V278.928C79.4676 278.928 73.3327 276.345 68.4086 271.174L66.9604 272.554ZM86.8845 280.928C94.8891 280.928 101.558 278.137 106.813 272.549L105.356 271.179C100.499 276.343 94.3679 278.928 86.8845 278.928V280.928ZM106.817 272.545C112.056 266.908 114.669 260.004 114.669 251.896H112.669C112.669 259.532 110.225 265.94 105.352 271.183L106.817 272.545ZM114.669 251.896C114.669 243.726 112.057 236.79 106.817 231.151L105.352 232.513C110.224 237.754 112.669 244.194 112.669 251.896H114.669ZM106.817 231.151C101.563 225.498 94.893 222.672 86.8845 222.672V224.672C94.364 224.672 100.494 227.286 105.352 232.513L106.817 231.151ZM86.5402 209.91L76.5562 214.806L77.4368 216.602L87.4208 211.706L86.5402 209.91ZM77.8072 215.119L76.5592 213.391L74.9378 214.561L76.1858 216.289L77.8072 215.119ZM76.3539 214.772L87.5859 206.228L86.3751 204.636L75.1431 213.18L76.3539 214.772ZM86.3751 206.228L97.6071 214.772L98.8179 213.18L87.5859 204.636L86.3751 206.228ZM97.4018 213.391L96.1538 215.119L97.7752 216.289L99.0232 214.561L97.4018 213.391ZM97.4048 214.806L87.4208 209.91L86.5402 211.706L96.5242 216.602L97.4048 214.806ZM172.114 283H171.114V284H172.114V283ZM172.114 220.312V219.312H171.114V220.312H172.114ZM174.226 220.312L174.98 219.656L174.681 219.312H174.226V220.312ZM215.122 267.352L214.367 268.008L214.373 268.015L215.122 267.352ZM219.154 272.344L218.346 272.934L218.359 272.952L218.373 272.969L219.154 272.344ZM221.17 274.84L220.463 275.547L222.393 277.478L222.166 274.757L221.17 274.84ZM220.978 220.696V219.696H219.978V220.696H220.978ZM225.394 220.696H226.394V219.696H225.394V220.696ZM225.394 283.384V284.384H226.394V283.384H225.394ZM223.282 283.384L222.528 284.041L222.827 284.384H223.282V283.384ZM181.618 235.576L180.845 236.21L180.854 236.222L180.864 236.233L181.618 235.576ZM176.338 229.144L177.111 228.51L175.014 225.955L175.343 229.243L176.338 229.144ZM176.53 283V284H177.53V283H176.53ZM173.114 283V220.312H171.114V283H173.114ZM172.114 221.312H174.226V219.312H172.114V221.312ZM173.471 220.968L214.367 268.008L215.876 266.696L174.98 219.656L173.471 220.968ZM214.373 268.015C215.826 269.657 217.15 271.297 218.346 272.934L219.961 271.754C218.725 270.063 217.362 268.375 215.871 266.689L214.373 268.015ZM218.373 272.969C219.013 273.769 219.502 274.378 219.84 274.796C220.008 275.005 220.14 275.168 220.235 275.283C220.306 275.37 220.402 275.487 220.463 275.547L221.877 274.133C221.905 274.161 221.893 274.15 221.78 274.013C221.691 273.904 221.563 273.747 221.396 273.54C221.061 273.126 220.574 272.519 219.935 271.719L218.373 272.969ZM222.166 274.757C222.042 273.269 221.978 270.302 221.978 265.816H219.978C219.978 270.29 220.041 273.339 220.173 274.923L222.166 274.757ZM221.978 265.816V220.696H219.978V265.816H221.978ZM220.978 221.696H225.394V219.696H220.978V221.696ZM224.394 220.696V283.384H226.394V220.696H224.394ZM225.394 282.384H223.282V284.384H225.394V282.384ZM224.036 282.727L182.372 234.919L180.864 236.233L222.528 284.041L224.036 282.727ZM182.391 234.942L177.111 228.51L175.565 229.778L180.845 236.21L182.391 234.942ZM175.343 229.243C175.465 230.463 175.53 233.416 175.53 238.168H177.53C177.53 233.448 177.467 230.385 177.333 229.044L175.343 229.243ZM175.53 238.168V283H177.53V238.168H175.53ZM176.53 282H172.114V284H176.53V282ZM253.61 274.648L254.328 273.952L253.61 274.648ZM253.61 229.048L254.328 229.744L254.328 229.744L253.61 229.048ZM298.346 229.048L299.064 228.352L299.064 228.352L298.346 229.048ZM298.346 274.648L299.064 275.344L299.064 275.344L298.346 274.648ZM256.778 231.832L256.05 231.147L256.046 231.151L256.778 231.832ZM256.778 271.864L256.046 272.545L256.054 272.554L256.778 271.864ZM295.178 271.864L295.907 272.549L295.911 272.545L295.178 271.864ZM295.178 231.832L295.911 231.151L295.911 231.151L295.178 231.832ZM289.226 210.616L289.567 211.556L290.309 211.287L290.22 210.504L289.226 210.616ZM275.21 215.704L274.928 216.663L275.243 216.756L275.551 216.644L275.21 215.704ZM271.946 214.744L271.463 213.868L269.364 215.027L271.664 215.703L271.946 214.744ZM288.65 205.528L289.644 205.416L289.476 203.93L288.167 204.652L288.65 205.528ZM275.978 282.96C267.344 282.96 260.15 279.959 254.328 273.952L252.892 275.344C259.103 281.753 266.82 284.96 275.978 284.96V282.96ZM254.328 273.952C248.5 267.938 245.586 260.607 245.586 251.896H243.586C243.586 261.105 246.688 268.942 252.892 275.344L254.328 273.952ZM245.586 251.896C245.586 243.119 248.502 235.756 254.328 229.744L252.892 228.352C246.687 234.756 243.586 242.625 243.586 251.896H245.586ZM254.328 229.744C260.15 223.737 267.344 220.736 275.978 220.736V218.736C266.82 218.736 259.103 221.943 252.892 228.352L254.328 229.744ZM275.978 220.736C284.612 220.736 291.807 223.737 297.628 229.744L299.064 228.352C292.854 221.943 285.136 218.736 275.978 218.736V220.736ZM297.628 229.744C303.455 235.756 306.37 243.119 306.37 251.896H308.37C308.37 242.625 305.27 234.756 299.064 228.352L297.628 229.744ZM306.37 251.896C306.37 260.607 303.456 267.938 297.628 273.952L299.064 275.344C305.268 268.942 308.37 261.105 308.37 251.896H306.37ZM297.628 273.952C291.807 279.959 284.612 282.96 275.978 282.96V284.96C285.136 284.96 292.854 281.753 299.064 275.344L297.628 273.952ZM275.978 222.672C268.031 222.672 261.365 225.5 256.05 231.147L257.506 232.517C262.432 227.284 268.565 224.672 275.978 224.672V222.672ZM256.046 231.151C250.805 236.79 248.194 243.726 248.194 251.896H250.194C250.194 244.194 252.639 237.754 257.511 232.513L256.046 231.151ZM248.194 251.896C248.194 260.004 250.807 266.908 256.046 272.545L257.511 271.183C252.638 265.94 250.194 259.532 250.194 251.896H248.194ZM256.054 272.554C261.37 278.135 268.035 280.928 275.978 280.928V278.928C268.561 278.928 262.426 276.345 257.502 271.174L256.054 272.554ZM275.978 280.928C283.983 280.928 290.651 278.137 295.907 272.549L294.45 271.179C289.593 276.343 283.462 278.928 275.978 278.928V280.928ZM295.911 272.545C301.15 266.908 303.762 260.004 303.762 251.896H301.762C301.762 259.532 299.319 265.94 294.446 271.183L295.911 272.545ZM303.762 251.896C303.762 243.726 301.151 236.79 295.911 231.151L294.446 232.513C299.317 237.754 301.762 244.194 301.762 251.896H303.762ZM295.911 231.151C290.657 225.498 283.987 222.672 275.978 222.672V224.672C283.458 224.672 289.588 227.286 294.446 232.513L295.911 231.151ZM288.885 209.676L274.869 214.764L275.551 216.644L289.567 211.556L288.885 209.676ZM275.492 214.745L272.228 213.785L271.664 215.703L274.928 216.663L275.492 214.745ZM272.429 215.62L289.133 206.404L288.167 204.652L271.463 213.868L272.429 215.62ZM287.657 205.64L288.233 210.728L290.22 210.504L289.644 205.416L287.657 205.64ZM326.614 283H325.614V284H326.614V283ZM326.614 220.312V219.312H325.614V220.312H326.614ZM328.726 220.312L329.48 219.656L329.181 219.312H328.726V220.312ZM369.622 267.352L368.867 268.008L368.873 268.015L369.622 267.352ZM373.654 272.344L372.846 272.934L372.859 272.952L372.873 272.969L373.654 272.344ZM375.67 274.84L374.963 275.547L376.893 277.478L376.666 274.757L375.67 274.84ZM375.478 220.696V219.696H374.478V220.696H375.478ZM379.894 220.696H380.894V219.696H379.894V220.696ZM379.894 283.384V284.384H380.894V283.384H379.894ZM377.782 283.384L377.028 284.041L377.327 284.384H377.782V283.384ZM336.118 235.576L335.345 236.21L335.354 236.222L335.364 236.233L336.118 235.576ZM330.838 229.144L331.611 228.51L329.514 225.955L329.843 229.243L330.838 229.144ZM331.03 283V284H332.03V283H331.03ZM327.614 283V220.312H325.614V283H327.614ZM326.614 221.312H328.726V219.312H326.614V221.312ZM327.971 220.968L368.867 268.008L370.376 266.696L329.48 219.656L327.971 220.968ZM368.873 268.015C370.326 269.657 371.65 271.297 372.846 272.934L374.461 271.754C373.225 270.063 371.862 268.375 370.371 266.689L368.873 268.015ZM372.873 272.969C373.513 273.769 374.002 274.378 374.34 274.796C374.508 275.005 374.64 275.168 374.735 275.283C374.806 275.37 374.902 275.487 374.963 275.547L376.377 274.133C376.405 274.161 376.393 274.15 376.28 274.013C376.191 273.904 376.063 273.747 375.896 273.54C375.561 273.126 375.074 272.519 374.435 271.719L372.873 272.969ZM376.666 274.757C376.542 273.269 376.478 270.302 376.478 265.816H374.478C374.478 270.29 374.541 273.339 374.673 274.923L376.666 274.757ZM376.478 265.816V220.696H374.478V265.816H376.478ZM375.478 221.696H379.894V219.696H375.478V221.696ZM378.894 220.696V283.384H380.894V220.696H378.894ZM379.894 282.384H377.782V284.384H379.894V282.384ZM378.536 282.727L336.872 234.919L335.364 236.233L377.028 284.041L378.536 282.727ZM336.891 234.942L331.611 228.51L330.065 229.778L335.345 236.21L336.891 234.942ZM329.843 229.243C329.965 230.463 330.03 233.416 330.03 238.168H332.03C332.03 233.448 331.967 230.385 331.833 229.044L329.843 229.243ZM330.03 238.168V283H332.03V238.168H330.03ZM331.03 282H326.614V284H331.03V282ZM437.52 283H436.52V284H437.52V283ZM437.52 220.696V219.696H436.52V220.696H437.52ZM441.936 220.696H442.936V219.696H441.936V220.696ZM441.936 278.968H440.936V279.968H441.936V278.968ZM470.544 278.968H471.544V277.968H470.544V278.968ZM470.544 283V284H471.544V283H470.544ZM438.52 283V220.696H436.52V283H438.52ZM437.52 221.696H441.936V219.696H437.52V221.696ZM440.936 220.696V278.968H442.936V220.696H440.936ZM441.936 279.968H470.544V277.968H441.936V279.968ZM469.544 278.968V283H471.544V278.968H469.544ZM470.544 282H437.52V284H470.544V282ZM486.717 261.4V260.4H486.048L485.793 261.018L486.717 261.4ZM477.789 283V284H478.458L478.713 283.382L477.789 283ZM473.277 283L472.354 282.615L471.777 284H473.277V283ZM499.389 220.312V219.312H498.722L498.466 219.927L499.389 220.312ZM501.981 220.312L502.903 219.925L502.646 219.312H501.981V220.312ZM528.285 283V284H529.789L529.207 282.613L528.285 283ZM523.389 283L522.466 283.385L522.723 284H523.389V283ZM514.365 261.4L515.288 261.015L515.031 260.4H514.365V261.4ZM500.445 227.416L501.389 227.086L500.422 224.323L499.496 227.1L500.445 227.416ZM497.853 234.616L498.776 235.001L498.779 234.994L498.781 234.987L497.853 234.616ZM488.253 257.656L487.33 257.271L486.753 258.656H488.253V257.656ZM512.829 257.656V258.656H514.326L513.753 257.273L512.829 257.656ZM503.325 234.712L502.4 235.092L502.401 235.095L503.325 234.712ZM512.733 210.616L513.074 211.556L513.815 211.287L513.727 210.504L512.733 210.616ZM498.717 215.704L498.435 216.663L498.75 216.756L499.058 216.644L498.717 215.704ZM495.453 214.744L494.97 213.868L492.87 215.027L495.171 215.703L495.453 214.744ZM512.157 205.528L513.151 205.416L512.983 203.93L511.674 204.652L512.157 205.528ZM485.793 261.018L476.865 282.618L478.713 283.382L487.641 261.782L485.793 261.018ZM477.789 282H473.277V284H477.789V282ZM474.2 283.385L500.312 220.697L498.466 219.927L472.354 282.615L474.2 283.385ZM499.389 221.312H501.981V219.312H499.389V221.312ZM501.059 220.699L527.363 283.387L529.207 282.613L502.903 219.925L501.059 220.699ZM528.285 282H523.389V284H528.285V282ZM524.312 282.615L515.288 261.015L513.442 261.785L522.466 283.385L524.312 282.615ZM514.365 260.4H486.717V262.4H514.365V260.4ZM499.496 227.1C498.54 229.969 497.683 232.349 496.925 234.245L498.781 234.987C499.559 233.043 500.43 230.623 501.394 227.732L499.496 227.1ZM496.93 234.231L487.33 257.271L489.176 258.041L498.776 235.001L496.93 234.231ZM488.253 258.656H512.829V256.656H488.253V258.656ZM513.753 257.273L504.249 234.329L502.401 235.095L511.905 258.039L513.753 257.273ZM504.25 234.332C502.777 230.745 501.827 228.337 501.389 227.086L499.501 227.746C499.959 229.055 500.929 231.511 502.4 235.092L504.25 234.332ZM512.392 209.676L498.376 214.764L499.058 216.644L513.074 211.556L512.392 209.676ZM498.999 214.745L495.735 213.785L495.171 215.703L498.435 216.663L498.999 214.745ZM495.936 215.62L512.64 206.404L511.674 204.652L494.97 213.868L495.936 215.62ZM511.163 205.64L511.739 210.728L513.727 210.504L513.151 205.416L511.163 205.64Z" fill="black" mask="url(#path-3-outside-2_77_2)"/>
</svg>
